<?xml version="1.0" standalone="no"?>
<!DOCTYPE svg PUBLIC "-//W3C//DTD SVG 20010904//EN"
 "http://www.w3.org/TR/2001/REC-SVG-20010904/DTD/svg10.dtd">
<svg version="1.0" xmlns="http://www.w3.org/2000/svg"
 width="456.000000pt" height="456.000000pt" viewBox="0 0 456.000000 456.000000"
 preserveAspectRatio="xMidYMid meet">
<metadata>
Created by potrace 1.11, written by Peter Selinger 2001-2013
</metadata>
<g transform="translate(0.000000,456.000000) scale(0.100000,-0.100000)"
fill="#000000" stroke="none">
<path d="M1242 4304 c-49 -34 -16 -78 65 -89 43 -6 54 -4 59 9 10 26 -55 94
-91 96 -6 0 -21 -7 -33 -16z"/>
<path d="M1630 4281 c-9 -18 -9 -29 0 -50 11 -25 12 -25 26 -6 18 24 18 36 0
60 -13 18 -14 18 -26 -4z"/>
<path d="M1417 4254 c-11 -11 13 -34 35 -34 13 0 18 6 16 18 -3 17 -38 29 -51
16z"/>
<path d="M1434 4169 c-8 -14 14 -29 33 -22 7 3 13 11 13 19 0 17 -36 19 -46 3z"/>
<path d="M1328 4153 c-44 -7 -53 -28 -22 -52 35 -27 50 -26 70 4 13 20 14 28
4 40 -7 8 -15 14 -19 14 -3 -1 -18 -4 -33 -6z"/>
<path d="M1184 4107 c-6 -18 18 -90 32 -94 11 -4 24 73 16 97 -5 15 -42 12
-48 -3z"/>
<path d="M2596 4039 c-24 -29 -27 -49 -6 -49 16 0 50 43 50 62 0 26 -15 22
-44 -13z"/>
<path d="M767 4054 c-9 -10 2 -24 19 -24 8 0 14 7 14 15 0 15 -21 21 -33 9z"/>
<path d="M710 4016 c0 -18 17 -29 30 -21 8 5 7 11 -1 21 -15 18 -29 18 -29 0z"/>
<path d="M1045 3830 c-4 -6 -1 -26 5 -45 19 -57 70 -69 70 -16 0 50 -54 94
-75 61z"/>
<path d="M315 3780 c-7 -12 12 -40 27 -40 13 0 6 43 -9 47 -6 2 -14 -1 -18 -7z"/>
<path d="M2659 3634 c-11 -13 -10 -21 7 -51 23 -43 70 -93 89 -93 7 0 18 7 26
16 11 13 9 23 -11 61 -24 45 -63 83 -85 83 -7 0 -18 -7 -26 -16z"/>
<path d="M1652 3604 c-26 -18 -29 -59 -7 -130 19 -64 19 -71 -3 -51 -44 40
-122 -4 -122 -69 0 -18 -4 -44 -10 -58 -13 -36 1 -69 42 -94 l33 -21 -37 -16
c-21 -8 -44 -15 -52 -15 -8 0 -29 30 -48 68 -28 57 -37 67 -57 64 -36 -4 -49
14 -57 74 -6 53 -9 57 -62 96 -80 60 -107 71 -131 58 -46 -24 -45 -43 9 -150
43 -86 55 -102 91 -120 28 -15 50 -19 70 -15 16 4 29 3 29 -2 0 -5 14 -25 30
-43 17 -18 30 -39 30 -46 0 -7 -23 -15 -55 -19 -66 -8 -80 -26 -71 -91 6 -47
2 -50 -38 -34 -35 13 -73 -3 -88 -36 -11 -24 -9 -29 41 -75 55 -53 59 -67 21
-86 -13 -6 -32 -28 -43 -49 -17 -33 -21 -36 -53 -31 -27 5 -36 2 -44 -14 -7
-11 -21 -19 -38 -19 -15 0 -39 -6 -53 -14 -37 -19 -79 -28 -79 -16 0 5 -12 17
-26 26 -24 16 -26 16 -47 -5 l-22 -22 28 -24 c34 -30 34 -48 2 -69 -45 -30
-28 -70 38 -87 21 -6 8 -7 -42 -3 -40 3 -79 8 -87 11 -22 8 -28 -24 -10 -52
16 -25 69 -45 119 -45 15 0 37 -10 48 -21 l22 -22 -24 -13 c-13 -7 -25 -8 -27
-3 -13 34 -90 -29 -111 -90 -9 -28 -8 -37 4 -51 13 -15 12 -19 -11 -41 l-26
-24 -19 25 c-74 94 -107 102 -179 43 -2 -2 -7 -28 -10 -56 l-5 -52 -51 3 c-70
4 -121 -18 -129 -55 -4 -15 -11 -38 -16 -51 -5 -13 -9 -34 -9 -48 0 -17 -8
-28 -27 -35 -74 -29 -79 -46 -26 -99 21 -21 51 -54 66 -74 16 -20 34 -36 40
-36 6 0 18 -6 26 -13 31 -26 206 -67 284 -67 23 0 52 -10 75 -25 85 -56 177
-51 232 11 27 32 35 35 64 30 18 -4 40 -14 49 -24 17 -19 47 -121 47 -161 0
-52 80 -171 115 -171 8 0 29 13 47 29 32 27 38 29 170 36 l136 7 12 -55 c9
-37 10 -63 3 -83 -11 -32 -30 -35 -120 -19 -41 7 -45 6 -88 -37 -38 -39 -45
-51 -45 -86 0 -22 9 -59 20 -83 11 -24 20 -57 20 -72 0 -68 97 -104 143 -52
51 56 83 100 99 138 18 39 19 39 59 34 31 -4 49 -15 77 -45 79 -85 202 -56
202 48 0 20 -7 46 -16 58 -15 22 -15 22 32 22 26 0 74 5 106 12 50 10 65 9
115 -6 66 -21 90 -22 171 -6 48 10 65 20 103 60 26 26 52 63 58 83 15 44 30
50 87 36 40 -10 43 -13 27 -25 -16 -12 -16 -13 10 -14 24 0 27 3 22 21 -6 18
-4 20 17 14 12 -4 30 -13 38 -20 8 -7 29 -15 45 -18 17 -3 41 -8 55 -11 14 -3
67 -10 118 -17 52 -7 100 -18 108 -26 10 -10 19 -11 33 -3 29 15 67 12 86 -7
25 -24 131 -72 177 -79 29 -5 46 -16 66 -41 25 -34 28 -35 77 -29 68 9 105 8
135 -4 25 -10 31 -19 63 -86 21 -44 74 -74 130 -74 63 0 92 16 118 64 l22 42
-21 46 c-11 26 -33 54 -49 64 -15 10 -51 42 -80 71 -36 37 -59 53 -77 53 -30
0 -30 1 -14 49 13 36 51 81 68 81 6 0 21 17 35 39 14 21 37 43 50 49 22 10 31
6 84 -38 33 -27 62 -54 65 -59 3 -5 39 -15 79 -21 91 -16 117 -26 117 -45 0
-23 46 -48 76 -41 25 7 63 70 64 107 0 9 7 19 15 23 8 3 15 14 15 25 0 11 4
23 10 26 5 3 18 35 29 70 19 60 19 68 5 115 -8 28 -24 59 -35 68 -26 22 -24
28 9 35 64 13 109 95 78 142 -20 31 -43 43 -125 65 -106 29 -153 33 -176 16
-11 -9 -25 -16 -32 -16 -18 0 -53 64 -53 98 0 48 -8 59 -82 108 -38 25 -76 56
-84 69 -8 13 -24 25 -34 28 -17 4 -19 11 -14 49 5 35 2 46 -14 61 -18 17 -23
17 -55 3 -35 -14 -36 -14 -74 21 -21 20 -56 47 -78 62 -46 30 -75 57 -75 70 0
5 -7 14 -15 21 -20 17 -19 27 5 35 12 4 20 15 20 28 0 12 5 29 10 37 8 13 11
12 24 -5 14 -20 15 -19 25 8 17 45 -7 187 -32 187 -7 0 -40 30 -74 67 -69 75
-77 102 -42 146 31 40 35 87 10 134 -19 38 -94 113 -113 113 -4 0 -8 11 -8 25
0 26 -22 33 -49 16 -15 -10 -130 14 -145 29 -6 6 -18 10 -27 10 -9 0 -36 15
-58 34 -52 43 -77 52 -107 35 -17 -9 -24 -21 -24 -43 l0 -31 -83 -1 c-74 -1
-87 -4 -133 -33 -28 -17 -55 -31 -60 -31 -5 0 -31 -18 -58 -40 -32 -27 -58
-40 -78 -40 -18 0 -39 -10 -54 -25 -14 -14 -36 -25 -49 -25 -15 0 -31 -10 -41
-25 -36 -55 -132 -107 -240 -129 -28 -6 -33 -3 -59 36 -15 24 -45 58 -66 76
-21 18 -41 43 -45 55 -14 48 -34 59 -94 52 l-55 -5 -57 55 c-69 65 -70 74 -32
208 l26 92 -22 17 c-12 10 -28 18 -35 18 -8 0 -27 14 -43 30 -34 34 -57 37
-90 14z m-728 -1429 c-8 -21 14 -45 41 -45 12 0 28 -7 36 -16 17 -21 -5 -36
-45 -29 -16 3 -39 5 -52 5 -21 0 -23 2 -12 19 9 15 9 26 1 44 -13 28 -8 37 18
37 12 0 16 -5 13 -15z"/>
<path d="M900 3525 c0 -8 7 -15 15 -15 8 0 15 7 15 15 0 8 -7 15 -15 15 -8 0
-15 -7 -15 -15z"/>
<path d="M114 3478 c-8 -13 81 -98 103 -98 24 0 13 24 -29 67 -43 44 -61 52
-74 31z"/>
<path d="M2741 3462 c-8 -16 -6 -26 10 -46 39 -49 84 -25 57 31 -16 34 -52 42
-67 15z"/>
<path d="M1432 3398 c-15 -15 -16 -45 -2 -53 16 -10 41 16 38 38 -4 25 -20 31
-36 15z"/>
<path d="M2654 3389 c-18 -20 -18 -21 2 -57 12 -20 30 -42 41 -49 17 -12 23
-11 43 5 28 23 22 61 -15 98 -30 29 -46 30 -71 3z"/>
<path d="M2062 3348 c-9 -9 -8 -16 4 -29 17 -19 44 -15 44 7 0 20 -34 36 -48
22z"/>
<path d="M2477 3332 c-23 -26 -21 -41 10 -74 28 -29 61 -35 94 -18 34 19 22
73 -22 95 -38 20 -62 19 -82 -3z"/>
<path d="M500 3314 c0 -17 22 -14 28 4 2 7 -3 12 -12 12 -9 0 -16 -7 -16 -16z"/>
<path d="M860 3240 c0 -13 5 -20 13 -17 6 2 12 10 12 17 0 7 -6 15 -12 18 -8
2 -13 -5 -13 -18z"/>
<path d="M746 3154 c-9 -24 19 -62 59 -81 28 -13 37 -14 50 -3 23 19 18 46
-16 74 -35 30 -84 35 -93 10z"/>
<path d="M2370 3105 c0 -11 7 -15 23 -13 12 2 22 8 22 13 0 6 -10 11 -22 13
-16 2 -23 -2 -23 -13z"/>
<path d="M1134 3065 c-8 -21 2 -45 20 -45 19 0 29 29 15 46 -15 18 -28 18 -35
-1z"/>
<path d="M430 3015 c0 -11 7 -15 23 -13 12 2 22 8 22 13 0 6 -10 11 -22 13
-16 2 -23 -2 -23 -13z"/>
<path d="M310 3005 c-14 -17 20 -55 49 -55 27 0 33 13 16 37 -18 26 -51 35
-65 18z"/>
<path d="M1006 3002 c-3 -6 1 -15 8 -21 8 -7 17 -8 20 -3 3 6 -1 15 -8 21 -8
7 -17 8 -20 3z"/>
<path d="M860 2980 c0 -16 5 -21 23 -18 12 2 22 10 22 18 0 8 -10 16 -22 18
-18 3 -23 -2 -23 -18z"/>
<path d="M912 2918 c-26 -26 1 -61 39 -51 25 7 24 39 0 53 -24 13 -24 13 -39
-2z"/>
<path d="M492 2878 c3 -7 13 -15 22 -16 12 -3 17 1 14 10 -3 7 -13 15 -22 16
-12 3 -17 -1 -14 -10z"/>
<path d="M0 2619 c0 -26 3 -29 31 -29 26 0 30 3 27 22 -2 14 -13 24 -30 29
-26 7 -28 5 -28 -22z"/>
<path d="M516 2498 c-12 -16 -13 -26 -4 -42 17 -33 27 -36 116 -36 80 0 82 1
82 24 0 29 -12 39 -74 60 -68 22 -102 21 -120 -6z"/>
<path d="M750 2346 c0 -54 29 -75 50 -36 8 15 6 24 -10 40 -27 27 -40 25 -40
-4z"/>
<path d="M697 2353 c-3 -5 -4 -26 -3 -48 1 -36 4 -40 29 -43 32 -4 35 10 13
63 -14 33 -30 44 -39 28z"/>
<path d="M535 2330 c-9 -15 13 -40 37 -40 14 0 19 6 16 23 -3 24 -41 36 -53
17z"/>
<path d="M190 2290 c-19 -19 -19 -23 -6 -49 35 -66 116 -103 146 -66 20 24 3
62 -47 100 -53 40 -66 42 -93 15z"/>
<path d="M350 2165 c-25 -30 16 -70 58 -54 24 9 29 38 10 57 -17 17 -53 15
-68 -3z"/>
<path d="M4 2055 c-17 -44 34 -101 100 -112 26 -4 39 0 55 16 28 28 27 56 -4
86 -20 21 -34 25 -85 25 -45 0 -62 -4 -66 -15z"/>
<path d="M4193 2003 c-11 -27 19 -68 52 -71 68 -6 71 34 6 68 -49 24 -50 24
-58 3z"/>
<path d="M1005 1560 c-8 -13 13 -40 31 -40 20 0 27 19 14 35 -14 17 -36 19
-45 5z"/>
<path d="M727 1523 c-13 -12 -7 -41 10 -47 21 -8 48 17 40 38 -6 16 -38 22
-50 9z"/>
<path d="M262 1484 c-30 -21 -28 -34 7 -34 35 0 49 17 29 36 -12 12 -17 12
-36 -2z"/>
<path d="M4237 1154 c-14 -14 -7 -35 11 -32 9 2 17 10 17 17 0 16 -18 25 -28
15z"/>
<path d="M2004 1055 c-7 -18 12 -45 32 -45 16 0 37 37 29 50 -10 16 -55 12
-61 -5z"/>
<path d="M1925 885 c-33 -32 -32 -70 1 -100 54 -50 144 -16 144 54 0 64 -97
95 -145 46z"/>
<path d="M3702 798 c-26 -26 1 -61 39 -51 31 9 17 63 -16 63 -6 0 -16 -5 -23
-12z"/>
<path d="M1655 755 c-14 -13 -25 -29 -25 -35 0 -23 49 -60 79 -60 28 0 71 37
71 62 0 19 -50 58 -75 58 -14 0 -37 -11 -50 -25z"/>
<path d="M1444 706 c-27 -23 -28 -24 -11 -50 20 -29 61 -35 92 -13 24 19 14
60 -20 75 -33 15 -29 16 -61 -12z"/>
<path d="M4395 529 c-10 -16 25 -49 52 -49 29 0 30 24 1 44 -26 19 -44 20 -53
5z"/>
<path d="M1478 479 c-26 -15 -22 -39 5 -39 31 0 50 19 36 37 -13 15 -18 16
-41 2z"/>
<path d="M2882 319 c2 -6 8 -10 13 -10 5 0 11 4 13 10 2 6 -4 11 -13 11 -9 0
-15 -5 -13 -11z"/>
<path d="M4437 283 c-25 -24 11 -49 40 -28 16 13 16 16 3 25 -17 11 -34 13
-43 3z"/>
<path d="M2282 228 c6 -18 28 -21 28 -4 0 9 -7 16 -16 16 -9 0 -14 -5 -12 -12z"/>
<path d="M4117 193 c-16 -15 -6 -33 18 -33 18 0 25 5 25 20 0 20 -28 28 -43
13z"/>
</g>
</svg>
